<svg width="48" height="48" viewBox="0 0 48 48" fill="none" xmlns="http://www.w3.org/2000/svg">
<circle cx="23.6462" cy="23.6462" r="22.6462" transform="matrix(-1 0 0 1 47.2922 0)" stroke="#323232" stroke-width="2"/>
<path d="M12.269 23.6459L11.5619 22.9388L10.8548 23.6459L11.5619 24.353L12.269 23.6459ZM35.0229 24.6459C35.5752 24.6459 36.0229 24.1982 36.0229 23.6459C36.0229 23.0936 35.5752 22.6459 35.0229 22.6459V24.6459ZM19.1466 15.3542L11.5619 22.9388L12.9761 24.353L20.5608 16.7684L19.1466 15.3542ZM11.5619 24.353L19.1466 31.9376L20.5608 30.5234L12.9761 22.9388L11.5619 24.353ZM12.269 24.6459H35.0229V22.6459H12.269V24.6459Z" fill="#323232"/>
</svg>
