<svg width="25" height="27" viewBox="0 0 25 27" fill="none" xmlns="http://www.w3.org/2000/svg">
<g opacity="0.5">
<path d="M3.78227 6.0229C11.0327 4.30493 20.0467 4.41026 22.1299 6.64923C24.2132 8.88819 24.1702 16.3747 21.735 18.429C19.3012 20.4832 8.73157 20.6785 5.38304 18.429C1.8453 16.051 3.89798 8.73588 3.78227 4.30493C3.8517 1.82545 1 1.42334 1 1.42334" stroke="#323232" stroke-width="2" stroke-linecap="round" stroke-linejoin="round"/>
<path d="M15.3005 11.5334H19.0751" stroke="#323232" stroke-width="2" stroke-linecap="round" stroke-linejoin="round"/>
<path fill-rule="evenodd" clip-rule="evenodd" d="M5.91908 23.6195C6.32742 23.6195 6.65955 23.9326 6.65955 24.3177C6.65955 24.7039 6.32742 25.0171 5.91908 25.0171C5.50937 25.0171 5.17725 24.7039 5.17725 24.3177C5.17725 23.9326 5.50937 23.6195 5.91908 23.6195Z" fill="black" stroke="#323232" stroke-width="2" stroke-linecap="round" stroke-linejoin="round"/>
<path fill-rule="evenodd" clip-rule="evenodd" d="M19.9822 23.6195C20.392 23.6195 20.7241 23.9326 20.7241 24.3177C20.7241 24.7039 20.392 25.0171 19.9822 25.0171C19.5738 25.0171 19.2417 24.7039 19.2417 24.3177C19.2417 23.9326 19.5738 23.6195 19.9822 23.6195Z" fill="black" stroke="#323232" stroke-width="2" stroke-linecap="round" stroke-linejoin="round"/>
</g>
</svg>
