<svg width="101" height="81" viewBox="0 0 101 81" fill="none" xmlns="http://www.w3.org/2000/svg">
<g clip-path="url(#clip0_103_55)">
<path d="M67.1808 40.5C64.5138 40.5 62.0046 39.0762 60.6474 36.798L50.5001 19.9336L40.3685 36.798C38.9955 39.092 36.4863 40.5158 33.8193 40.5158C33.1091 40.5158 32.399 40.4209 31.7204 40.2152L10.1001 34.0137V62.1738C10.1001 64.4994 11.6782 66.5244 13.9191 67.0781L48.0382 75.6369C49.6479 76.0324 51.3365 76.0324 52.9304 75.6369L87.081 67.0781C89.3219 66.5086 90.9001 64.4836 90.9001 62.1738V34.0137L69.2798 40.1994C68.6012 40.4051 67.891 40.5 67.1808 40.5ZM100.732 22.7496L92.6044 6.48632C92.1152 5.50546 91.0579 4.93593 89.969 5.07831L50.5001 10.125L64.9715 34.1877C65.5712 35.1844 66.7705 35.659 67.891 35.3426L99.1221 26.4041C100.684 25.9453 101.442 24.2051 100.732 22.7496ZM8.39571 6.48632L0.268369 22.7496C-0.457568 24.2051 0.315713 25.9453 1.86227 26.3883L33.0934 35.3267C34.2138 35.6432 35.4132 35.1685 36.0129 34.1719L50.5001 10.125L11.0154 5.07831C9.92649 4.95175 8.88493 5.50546 8.39571 6.48632Z" fill="#C2C2C2"/>
</g>
<defs>
<clipPath id="clip0_103_55">
<rect width="101" height="81" fill="white"/>
</clipPath>
</defs>
</svg>
