<svg width="94" height="75" viewBox="0 0 94 75" fill="none" xmlns="http://www.w3.org/2000/svg">
<g clip-path="url(#clip0_103_48)">
<path d="M9.4 7.03125C9.4 3.14795 12.5563 0 16.45 0H54.05C57.9422 0 61.1 3.14795 61.1 7.03125V37.5H89.3V51.5625C91.8997 51.5625 94 53.6572 94 56.25C94 58.8428 91.8997 60.9375 89.3 60.9375H84.6C84.6 68.7012 78.2844 75 70.5 75C62.5834 75 56.4 68.7012 56.4 60.9375H37.6C37.6 68.7012 31.2844 75 23.5 75C15.5834 75 9.4 68.7012 9.4 60.9375V42.1875H30.55C31.8425 42.1875 32.9 41.1328 32.9 39.8438C32.9 38.5547 31.8425 37.5 30.55 37.5H2.35C1.05221 37.5 0 36.4453 0 35.1562C0 33.8672 1.05221 32.8125 2.35 32.8125H35.25C36.5425 32.8125 37.6 31.7578 37.6 30.4688C37.6 29.1797 36.5425 28.125 35.25 28.125H7.05C5.75162 28.125 4.7 27.0703 4.7 25.7812C4.7 24.4922 5.75162 23.4375 7.05 23.4375H39.95C41.2425 23.4375 42.3 22.3828 42.3 21.0938C42.3 19.8047 41.2425 18.75 39.95 18.75H2.35C1.05221 18.75 0 17.6953 0 16.4062C0 15.1172 1.05221 14.0625 2.35 14.0625H9.4V7.03125ZM23.5 67.9688C27.3922 67.9688 30.55 64.8193 30.55 60.9375C30.55 57.0557 27.3922 53.9062 23.5 53.9062C19.6078 53.9062 16.45 57.0557 16.45 60.9375C16.45 64.8193 19.6078 67.9688 23.5 67.9688ZM70.5 53.9062C66.6078 53.9062 63.45 57.0557 63.45 60.9375C63.45 64.8193 66.6078 67.9688 70.5 67.9688C74.3922 67.9688 77.55 64.8193 77.55 60.9375C77.55 57.0557 74.3922 53.9062 70.5 53.9062ZM68.5466 23.4375H58.75V14.0625H68.5466C71.0434 14.0625 73.3053 15.0439 75.2 16.8018L86.5534 28.125C88.3159 29.8828 89.3 32.2705 89.3 34.7607V42.1875H79.9V34.7607L68.5466 23.4375Z" fill="#C4C4C4"/>
</g>
<defs>
<clipPath id="clip0_103_48">
<rect width="94" height="75" fill="white"/>
</clipPath>
</defs>
</svg>
