<svg width="22" height="22" viewBox="0 0 22 22" fill="none" xmlns="http://www.w3.org/2000/svg">
<g clip-path="url(#clip0_103_38)">
<path d="M20.7826 1C21.1168 1 21.4032 1.11936 21.6419 1.35807C21.8806 1.59679 22 1.88325 22 2.21745V21.7826C22 22.1168 21.8806 22.4032 21.6419 22.6419C21.4032 22.8806 21.1168 23 20.7826 23H15.1823V14.4779H18.0326L18.4622 11.1549H15.1823V9.03516C15.1823 8.50043 15.2945 8.09939 15.5189 7.83203C15.7433 7.56467 16.1801 7.43099 16.8294 7.43099L18.5768 7.41667V4.45182C17.9753 4.36589 17.1254 4.32292 16.0273 4.32292C14.7287 4.32292 13.6903 4.70486 12.9121 5.46875C12.1339 6.23264 11.7448 7.31163 11.7448 8.70573V11.1549H8.88021V14.4779H11.7448V23H1.21745C0.883247 23 0.596788 22.8806 0.358073 22.6419C0.119358 22.4032 0 22.1168 0 21.7826V2.21745C0 1.88325 0.119358 1.59679 0.358073 1.35807C0.596788 1.11936 0.883247 1 1.21745 1H20.7826Z" fill="#C2C2C2"/>
</g>
<defs>
<clipPath id="clip0_103_38">
<rect width="22" height="22" fill="white"/>
</clipPath>
</defs>
</svg>
