<svg width="52" height="51" viewBox="0 0 52 51" fill="none" xmlns="http://www.w3.org/2000/svg">
<rect x="0.645264" width="51" height="51" rx="25.5" fill="#F3F3F3"/>
<g clip-path="url(#clip0_47_2397)">
<path d="M26.1499 20.3449C23.2538 20.3449 20.9178 22.6443 20.9178 25.4952C20.9178 28.346 23.2538 30.6454 26.1499 30.6454C29.0459 30.6454 31.3819 28.346 31.3819 25.4952C31.3819 22.6443 29.0459 20.3449 26.1499 20.3449ZM26.1499 28.8435C24.2783 28.8435 22.7483 27.3419 22.7483 25.4952C22.7483 23.6484 24.2738 22.1468 26.1499 22.1468C28.0259 22.1468 29.5514 23.6484 29.5514 25.4952C29.5514 27.3419 28.0214 28.8435 26.1499 28.8435ZM32.8163 20.1342C32.8163 20.8021 32.2699 21.3355 31.5959 21.3355C30.9174 21.3355 30.3756 20.7976 30.3756 20.1342C30.3756 19.4708 30.922 18.9329 31.5959 18.9329C32.2699 18.9329 32.8163 19.4708 32.8163 20.1342ZM36.2815 21.3534C36.2041 19.7442 35.8307 18.3188 34.6332 17.1444C33.4401 15.97 31.9921 15.6025 30.3574 15.5218C28.6725 15.4276 23.6226 15.4276 21.9378 15.5218C20.3076 15.598 18.8596 15.9655 17.662 17.1399C16.4644 18.3143 16.0956 19.7397 16.0136 21.3489C15.918 23.0074 15.918 27.9784 16.0136 29.6369C16.091 31.2461 16.4644 32.6715 17.662 33.8459C18.8596 35.0203 20.3031 35.3878 21.9378 35.4685C23.6226 35.5627 28.6725 35.5627 30.3574 35.4685C31.9921 35.3923 33.4401 35.0248 34.6332 33.8459C35.8262 32.6715 36.1996 31.2461 36.2815 29.6369C36.3772 27.9784 36.3772 23.0119 36.2815 21.3534ZM34.1049 31.4164C33.7498 32.295 33.0622 32.9718 32.1651 33.3259C30.8218 33.8504 27.6343 33.7294 26.1499 33.7294C24.6654 33.7294 21.4733 33.8459 20.1346 33.3259C19.2421 32.9763 18.5545 32.2995 18.1948 31.4164C17.662 30.0941 17.785 26.9564 17.785 25.4952C17.785 24.0339 17.6666 20.8917 18.1948 19.5739C18.55 18.6953 19.2375 18.0185 20.1346 17.6644C21.4779 17.1399 24.6654 17.2609 26.1499 17.2609C27.6343 17.2609 30.8264 17.1444 32.1651 17.6644C33.0576 18.014 33.7452 18.6908 34.1049 19.5739C34.6377 20.8962 34.5148 24.0339 34.5148 25.4952C34.5148 26.9564 34.6377 30.0986 34.1049 31.4164Z" fill="#323232"/>
</g>
<defs>
<clipPath id="clip0_47_2397">
<rect width="20.4" height="22.95" fill="white" transform="translate(15.9453 14.0249)"/>
</clipPath>
</defs>
</svg>
