<svg width="73" height="87" viewBox="0 0 73 87" fill="none" xmlns="http://www.w3.org/2000/svg">
<path fill-rule="evenodd" clip-rule="evenodd" d="M5.35417 29.125C4.08334 29.125 2.86456 29.6298 1.96595 30.5284C1.06734 31.4271 0.5625 32.6458 0.5625 33.9167V81.8333C0.5625 83.1042 1.06734 84.3229 1.96595 85.2216C2.86456 86.1202 4.08334 86.625 5.35417 86.625H67.6458C68.9167 86.625 70.1354 86.1202 71.0341 85.2216C71.9327 84.3229 72.4375 83.1042 72.4375 81.8333V33.9167C72.4375 32.6458 71.9327 31.4271 71.0341 30.5284C70.1354 29.6298 68.9167 29.125 67.6458 29.125H5.35417ZM14.9375 48.2917H58.0625V43.5H14.9375V48.2917ZM58.0625 60.2708H14.9375V55.4792H58.0625V60.2708ZM14.9375 72.25H58.0625V67.4583H14.9375V72.25Z" fill="#C2C2C2"/>
<path fill-rule="evenodd" clip-rule="evenodd" d="M50.8751 29.125V24.3333C50.8751 20.5208 49.3606 16.8645 46.6647 14.1687C43.9689 11.4728 40.3126 9.95833 36.5001 9.95833C32.6876 9.95833 29.0313 11.4728 26.3354 14.1687C23.6396 16.8645 22.1251 20.5208 22.1251 24.3333V29.125H50.8751ZM36.5001 0.375C23.2679 0.375 12.5417 11.1011 12.5417 24.3333V38.7083H60.4584V24.3333C60.4584 11.1011 49.7323 0.375 36.5001 0.375Z" fill="#C2C2C2"/>
</svg>
