<svg width="14" height="15" viewBox="0 0 14 15" fill="none" xmlns="http://www.w3.org/2000/svg">
<path d="M10.4723 8.8067C10.3019 8.99371 10.2236 9.26417 10.2625 9.52941L10.8473 13.1951C10.8966 13.5058 10.7808 13.8203 10.5513 13.9998C10.3263 14.1861 10.0269 14.2084 9.78156 14.0594L6.86792 12.3383C6.76661 12.2772 6.65412 12.2444 6.53899 12.2407H6.36072C6.29888 12.2511 6.23836 12.2735 6.18309 12.3078L3.2688 14.0371C3.12473 14.119 2.96158 14.1481 2.80172 14.119C2.41227 14.0356 2.15242 13.6154 2.21623 13.172L2.80172 9.50631C2.84054 9.23884 2.76225 8.96689 2.59187 8.77689L0.216353 6.16916C0.0176804 5.95085 -0.0513944 5.62302 0.0393896 5.32723C0.127542 5.03219 0.352528 4.81686 0.624222 4.76843L3.89376 4.23124C4.14243 4.20218 4.36084 4.03081 4.47267 3.77749L5.91337 0.432139C5.94758 0.357632 5.99166 0.289086 6.04495 0.230971L6.10415 0.178816C6.13507 0.140073 6.1706 0.108035 6.21007 0.0819574L6.28177 0.0521547L6.39361 0H6.67057C6.91792 0.0290576 7.13567 0.196698 7.24948 0.44704L8.70926 3.77749C8.81451 4.02113 9.01911 4.19026 9.25528 4.23124L12.5248 4.76843C12.8011 4.81314 13.032 5.0292 13.1235 5.32723C13.2096 5.626 13.1353 5.95383 12.9327 6.16916L10.4723 8.8067Z" fill="#FBD103"/>
</svg>
