<svg width="52" height="51" viewBox="0 0 52 51" fill="none" xmlns="http://www.w3.org/2000/svg">
<rect x="0.290771" width="51" height="51" rx="25.5" fill="#F3F3F3"/>
<g clip-path="url(#clip0_47_2394)">
<path d="M34.9066 21.0611C34.9212 21.258 34.9212 21.4549 34.9212 21.6518C34.9212 27.6564 30.1885 34.5752 21.5385 34.5752C18.8736 34.5752 16.3981 33.8298 14.3157 32.5361C14.6943 32.5783 15.0583 32.5924 15.4515 32.5924C17.6504 32.5924 19.6746 31.8752 21.291 30.6518C19.2231 30.6096 17.4902 29.3018 16.8932 27.5017C17.1844 27.5439 17.4757 27.572 17.7815 27.572C18.2038 27.572 18.6261 27.5158 19.0193 27.4174C16.8641 26.9955 15.2476 25.1674 15.2476 22.9596V22.9033C15.8738 23.2408 16.6019 23.4518 17.3737 23.4799C16.1068 22.6642 15.2768 21.272 15.2768 19.697C15.2768 18.8533 15.5097 18.0799 15.9175 17.4049C18.2329 20.1611 21.7133 21.9611 25.6159 22.158C25.5431 21.8205 25.4994 21.469 25.4994 21.1174C25.4994 18.6142 27.5964 16.5752 30.203 16.5752C31.5573 16.5752 32.7805 17.1236 33.6397 18.0096C34.7027 17.8127 35.722 17.433 36.6249 16.9127C36.2754 17.9674 35.5327 18.8533 34.5571 19.4158C35.5037 19.3174 36.4211 19.0642 37.2657 18.7127C36.625 19.6127 35.8241 20.4142 34.9066 21.0611Z" fill="#323232"/>
</g>
<defs>
<clipPath id="clip0_47_2394">
<rect width="22.95" height="19.125" fill="white" transform="translate(14.3157 16.5752)"/>
</clipPath>
</defs>
</svg>
